# xmcd
#
# Track frame offsets:
#	150
#	18895
#	35561
#	51623
#	67769
#	84549
#	104196
#	119775
#	134941
#	151895
#	166548
#	182777
#
# Disc length: 2649 seconds
#
# Revision: 1
# Processed by: cddbd v1.5.2PL0 Copyright (c) Steve Scherf et al.
# Submitted via: audiograbber 1.83.01
#
DISCID=aa0a570c
DTITLE=Saltwater Jinx - Saltwater Jinx
DYEAR=2014
DGENRE=Country
TTITLE0=Love Minus Zero - No Limit
TTITLE1=Searchin' for the Rainbow
TTITLE2=Streets of Baltimore
TTITLE3=I Washed My Hands in Muddy Water
TTITLE4=Days of Wine and Roses
TTITLE5=Bible and a Gun
TTITLE6=She's a Heartbraker
TTITLE7=Something You Got
TTITLE8=When You Were Mine
TTITLE9=Highway Junkie
TTITLE10=Where in the Hell Did You Go with My Tootbrush
TTITLE11=Miss Williams' Guitar
EXTD=
EXTT0=
EXTT1=
EXTT2=
EXTT3=
EXTT4=
EXTT5=
EXTT6=
EXTT7=
EXTT8=
EXTT9=
EXTT10=
EXTT11=
PLAYORDER=
